<svg width="48" height="48" viewBox="0 0 48 48" fill="none" xmlns="http://www.w3.org/2000/svg">
<rect x="14" y="34" width="4" height="4" fill="#FF5F46"/>
<rect x="10" y="38" width="4" height="4" fill="#FF5F46"/>
<rect x="18" y="30" width="4" height="4" fill="#FF5F46"/>
<rect x="22" y="26" width="4" height="4" fill="#FF5F46"/>
<rect x="26" y="22" width="4" height="4" fill="#FF5F46"/>
<rect x="30" y="26" width="4" height="4" fill="#FF5F46"/>
<rect x="34" y="30" width="4" height="4" fill="#FF5F46"/>
<rect x="38" y="22" width="4" height="8" fill="#FF5F46"/>
<rect x="34" y="14" width="4" height="8" fill="#FF5F46"/>
<rect x="10" y="30" width="4" height="4" fill="#FF5F46"/>
<rect x="6" y="34" width="4" height="4" fill="#FF5F46"/>
<rect x="14" y="26" width="4" height="4" fill="#FF5F46"/>
<rect x="18" y="22" width="4" height="4" fill="#FF5F46"/>
<rect x="22" y="18" width="4" height="4" fill="#FF5F46"/>
<rect x="18" y="14" width="4" height="4" fill="#FF5F46"/>
<rect x="14" y="10" width="4" height="4" fill="#FF5F46"/>
<rect x="18" y="6" width="8" height="4" fill="#FF5F46"/>
<rect x="26" y="10" width="8" height="4" fill="#FF5F46"/>
</svg>
